HIERARCHY
ROOT Hips
{
  OFFSET 265.287 66.7526 -254.649
  CHANNELS 6 Xposition Yposition Zposition Zrotation Xrotation Yrotation
  JOINT LeftUpLeg
  {
    OFFSET 8.64259 1.95398 -2.38835
    CHANNELS 3 Zrotation Xrotation Yrotation
    JOINT LeftLeg
    {
      OFFSET 43.7702 0 0
      CHANNELS 3 Zrotation Xrotation Yrotation
      JOINT LeftFoot
      {
        OFFSET 40.6238 0 0
        CHANNELS 3 Zrotation Xrotation Yrotation
        JOINT LeftToeBase
        {
          OFFSET 12.7242 0 0
          CHANNELS 3 Zrotation Xrotation Yrotation
          End Site
          {
            OFFSET 0 0 0
          }
        }
      }
    }
  }
  JOINT RightUpLeg
  {
    OFFSET -8.2249 1.95398 -2.59336
    CHANNELS 3 Zrotation Xrotation Yrotation
    JOINT RightLeg
    {
      OFFSET 43.5653 0 0
      CHANNELS 3 Zrotation Xrotation Yrotation
      JOINT RightFoot
      {
        OFFSET 40.6238 0 0
        CHANNELS 3 Zrotation Xrotation Yrotation
        JOINT RightToeBase
        {
          OFFSET 12.7242 0 0
          CHANNELS 3 Zrotation Xrotation Yrotation
          End Site
          {
            OFFSET 0 0 0
          }
        }
      }
    }
  }
  JOINT Spine
  {
    OFFSET 0.165834 0.87714 6.61349
    CHANNELS 3 Zrotation Xrotation Yrotation
    JOINT Spine1
    {
      OFFSET 7.38963 1.71661e-005 0
      CHANNELS 3 Zrotation Xrotation Yrotation
      JOINT Spine2
      {
        OFFSET 11.9445 1.14441e-005 0
        CHANNELS 3 Zrotation Xrotation Yrotation
        JOINT Spine3
        {
          OFFSET 14.7254 4.19617e-005 0
          CHANNELS 3 Zrotation Xrotation Yrotation
          JOINT Spine4
          {
            OFFSET 10.9679 0 0
            CHANNELS 3 Zrotation Xrotation Yrotation
            JOINT RightShoulder
            {
              OFFSET 2.46616 -1.6653 3.69651
              CHANNELS 3 Zrotation Xrotation Yrotation
              JOINT RightArm
              {
                OFFSET 13.0012 0 0
                CHANNELS 3 Zrotation Xrotation Yrotation
                JOINT RightForeArm
                {
                  OFFSET 28.7848 1.52588e-005 0
                  CHANNELS 3 Zrotation Xrotation Yrotation
                  JOINT RightHand
                  {
                    OFFSET 26.5688 1.52588e-005 0
                    CHANNELS 3 Zrotation Xrotation Yrotation
                    End Site
                    {
                      OFFSET 0 0 0
                    }
                  }
                }
              }
            }
            JOINT LeftShoulder
            {
              OFFSET 2.38034 -1.29275 -3.7523
              CHANNELS 3 Zrotation Xrotation Yrotation
              JOINT LeftArm
              {
                OFFSET 16.3182 6.10351e-005 0
                CHANNELS 3 Zrotation Xrotation Yrotation
                JOINT LeftForeArm
                {
                  OFFSET 27.0901 0 0
                  CHANNELS 3 Zrotation Xrotation Yrotation
                  JOINT LeftHand
                  {
                    OFFSET 24.5451 1.52588e-005 0
                    CHANNELS 3 Zrotation Xrotation Yrotation
                    End Site
                    {
                      OFFSET 0 0 0
                    }
                  }
                }
              }
            }
            JOINT Neck
            {
              OFFSET 5.0226 -0.0266342 0
              CHANNELS 3 Zrotation Xrotation Yrotation
              JOINT Head
              {
                OFFSET 6.69364 2.86102e-005 0
                CHANNELS 3 Zrotation Xrotation Yrotation
                End Site
                {
                  OFFSET 0 0 0
                }
              }
            }
          }
        }
      }
    }
  }
}
MOTION
Frames:	6
Frame Time:	0.0416667
-49.8161 81.5101 31.2073 -63.8995 -83.7717 -68.1659 -172.324 28.542 115.525 -29.2373 18.4198 7.51252 32.7351 -7.01038 -7.99644 66.5141 -6.90018 20.1892 165.886 56.8499 69.6843 -104.553 -23.1989 -3.27178 51.5603 5.89233 14.6375 53.4964 -2.32507 11.8262 -0.808178 9.50986 -89.2297 7.86063 -1.27716 1.59035 -3.81073 -1.20592 1.645 -26.3464 -1.69603 1.13302 -6.33378 -1.69604 1.13302 103.967 -26.6425 -78.2233 -5.99699 4.77108 19.633 -2.63313 1.03525 -37.2758 -6.27575 0.0307802 -6.27004 -80.5623 -21.4795 90.6731 -0.0900734 3.84704 27.6833 -8.193 -21.6152 -26.2041 14.3091 -0.290931 -5.73672 -4.61996 9.1317 -16.1673 11.4012 14.6191 30.1591 
-43.4079 79.9483 31.5414 -66.5377 -82.5924 -71.7037 -171.982 32.5613 112.291 -41.7932 15.7544 5.64631 51.0411 -2.65486 5.42951 58.5335 -6.73483 14.9796 148.374 60.8228 89.8286 -105.289 -29.8928 -2.62686 52.6549 6.10159 13.9188 54.3129 -2.04362 14.6736 -0.95652 9.92091 -89.1859 7.04064 -1.56074 1.67233 -4.63053 -1.48564 1.73939 -27.1686 -1.99115 1.12594 -7.15601 -1.99115 1.12595 103.79 -31.704 -78.9073 -0.64363 2.63227 19.991 -1.34588 2.48923 -36.1446 -3.84089 0.0283202 -7.04926 -79.788 -30.9131 93.0898 -0.117776 -0.773124 24.0847 -9.52506 -23.1597 -30.4505 14.4129 -0.36467 -6.22853 5.00768 8.97634 -20.9912 5.53851 15.4546 34.4659 
-38.5615 78.3624 30.3043 -38.6487 -84.1403 -46.4995 -175.983 41.6446 109.28 -53.3457 16.6391 4.16835 50.9441 -2.3494 4.57871 60.1296 -7.24346 13.6403 132.561 61.1693 108.572 -97.5277 -34.353 0.106067 54.4316 5.06456 11.2057 56.2376 -1.91257 15.8417 -1.20863 10.3146 -89.2079 6.25681 -2.07955 1.62678 -5.4136 -2.00594 1.71672 -27.9588 -2.47227 0.926392 -7.94613 -2.47227 0.926392 105.214 -39.4243 -76.673 3.97472 3.66354 13.3764 -0.975822 3.4911 -30.5518 -1.59946 -0.0106114 -6.75503 -81.1925 -41.8488 91.2409 3.06686 -2.31605 11.603 -8.55287 -23.7219 -27.8089 15.6575 -0.367654 -6.11459 14.6127 6.85066 -21.8673 3.21017 14.5408 33.4717 
-34.2118 77.4682 30.0197 19.6776 -82.5221 9.97184 -176.43 47.6239 104.582 -56.8744 20.8086 2.60373 56.9861 0.516451 7.11411 56.481 -6.90459 11.098 129.463 59.809 114.427 -82.9226 -33.1651 5.23947 53.2388 4.87895 7.03617 57.8298 -1.96192 16.5767 -1.32212 10.3095 -89.4627 6.26616 -2.41405 1.1387 -5.40313 -2.3616 1.24386 -27.9557 -2.64461 0.360093 -7.94307 -2.64461 0.360086 105.157 -46.0345 -77.2634 8.13382 4.03229 5.61406 -3.60995 -3.71003 -20.9993 4.64067 -0.0977223 -6.62119 -85.068 -46.3051 85.4186 5.49125 0.309582 -5.38252 -5.24302 -21.118 -18.2162 13.4993 -0.351291 -6.24432 13.8482 4.6649 -16.4146 8.51191 11.7008 27.0066 
-29.2554 77.7034 30.4914 55.5327 -82.9078 41.6897 -170.227 45.4905 94.7491 -58.1282 26.6772 -0.75931 60.9395 3.50275 16.5389 52.1875 -6.44621 7.14043 144.148 58.1893 102.249 -74.7755 -31.3366 6.39698 55.1051 3.22723 1.33895 18.8671 -0.598563 10.1294 -1.13581 10.7766 -89.569 5.32753 -2.09062 0.890331 -6.34211 -2.0494 0.981497 -28.8904 -2.26151 0.220566 -8.87783 -2.2615 0.220563 103.652 -50.591 -79.8655 8.87771 4.84513 -2.56198 -5.29377 -16.7639 -13.9299 11.5649 -0.240703 -7.08683 -89.2945 -49.512 79.4492 7.58095 1.94964 -21.2837 -3.41164 -14.5804 -13.8104 12.6564 -0.429206 -6.93704 13.9176 1.46946 -8.02327 11.6681 6.33491 20.7464 
-25.2575 77.4871 30.7587 97.8207 -79.3481 79.4332 -168.035 42.617 86.8633 -61.3032 26.982 -2.40147 61.4156 3.32517 15.1763 49.4499 -5.98308 4.69829 157.713 54.5552 91.5653 -78.4865 -22.8034 2.64659 66.6599 -10.2515 -17.094 33.3 -1.70363 13.096 -1.11511 11.2593 -89.8313 4.35747 -2.15949 0.348726 -7.31176 -2.14206 0.443473 -29.8612 -2.16442 -0.316718 -9.84853 -2.16442 -0.316727 101.12 -51.2663 -83.7716 9.27748 3.46324 -8.70195 -3.42848 -20.3844 -10.5004 9.09527 -0.120029 -6.03782 -91.6335 -49.9059 76.0256 5.81116 3.85339 -33.1892 -1.57107 -6.25808 -17.2834 12.3518 -0.43647 -7.04498 11.6642 -1.62335 -0.522182 15.3185 1.03376 14.7427 
